<?xml version="1.0" encoding="utf-8" ?>
<svg xmlns="http://www.w3.org/2000/svg" xmlns:xlink="http://www.w3.org/1999/xlink" width="110" height="49">
	<defs>
		<linearGradient id="gradient_0" gradientUnits="userSpaceOnUse" x1="0" y1="12.606289" x2="43.31628" y2="12.606289">
			<stop offset="0" stop-color="#68D8FC"/>
			<stop offset="0.34" stop-color="#3797D4"/>
			<stop offset="1" stop-color="#17247D"/>
		</linearGradient>
	</defs>
	<path fill="url(#gradient_0)" transform="translate(65.6833 1.35848)" d="M43.269764 0.80502588C44.069145 13.449485 34.55069 24.362444 21.994947 25.169205C12.436871 25.771238 3.8780158 20.337315 0 12.160402C1.6004783 6.5234857 10.397079 14.415862 14.716131 16.712963C18.876686 18.968422 25.512899 20.941084 35.391415 11.397016C32.352402 13.007067 29.432262 11.638176 30.073141 9.3428116C31.031017 5.6785555 41.429817 8.6175938 43.230141 0C43.230141 0.28280005 43.269764 0.5256958 43.269764 0.80676085L43.269764 0.80676085L43.269764 0.80502588Z" fill-rule="evenodd"/>
	<defs>
		<linearGradient id="gradient_1" gradientUnits="userSpaceOnUse" x1="0.00099713437" y1="6.049839" x2="13.251028" y2="6.049839">
			<stop offset="0" stop-color="#47CEFD"/>
			<stop offset="0.34" stop-color="#3797D4"/>
			<stop offset="1" stop-color="#17247D"/>
		</linearGradient>
	</defs>
	<path fill="url(#gradient_1)" transform="translate(95.6625 1.35848)" d="M3.5327306 12.040689C1.2930948 12.401563 -0.42797929 11.155854 0.094028167 9.3428116C1.0519032 5.6785555 11.450705 8.6175938 13.251028 0C13.04946 2.2970998 12.091585 3.7857037 10.852895 4.9550734C9.6124811 6.1227078 4.7317972 7.4915986 2.4542599 8.4198074C0.095750965 9.4260902 0.57468849 12.122232 3.5344534 12.042424L3.5344534 12.042424L3.5327306 12.040689Z" fill-rule="evenodd"/>
	<defs>
		<linearGradient id="gradient_2" gradientUnits="userSpaceOnUse" x1="0" y1="3.5861821" x2="28.431316" y2="3.5861821">
			<stop offset="0" stop-color="#47CEFD"/>
			<stop offset="0.34" stop-color="#3797D4"/>
			<stop offset="1" stop-color="#17247D"/>
		</linearGradient>
	</defs>
	<path fill="url(#gradient_2)" transform="translate(72.6434 12.7555)" d="M0 0.40077797C4.4379249 2.5347905 8.7966003 5.3940206 13.554966 5.5952768C19.474495 5.8399076 24.432705 2.1322777 26.553469 0.64367372C27.153002 0.52396083 27.793882 0.32096937 28.433039 0C18.554522 9.5440674 11.918308 7.5714073 7.7577543 5.3159471C5.7593098 4.2281208 2.8012676 1.9726604 0.0017227968 0.40251294L0.0017227968 0.40251294L0 0.40077797Z" fill-rule="evenodd"/>
	<defs>
		<linearGradient id="gradient_3" gradientUnits="userSpaceOnUse" x1="0.00036569024" y1="12.608356" x2="43.316647" y2="12.608356">
			<stop offset="0" stop-color="#68D8FC"/>
			<stop offset="0.34" stop-color="#3797D4"/>
			<stop offset="1" stop-color="#17247D"/>
		</linearGradient>
	</defs>
	<path fill="url(#gradient_3)" transform="translate(50.2174 0.556595)" d="M0.046881206 24.411354C-0.75249654 11.76516 8.7659559 0.85393596 21.321699 0.045440149C30.879776 -0.55659431 39.438633 4.8790655 43.316647 13.054242C41.716167 18.691158 32.919567 10.798781 28.60224 8.5051517C24.443407 6.2496915 17.803749 4.2752962 7.9269538 13.819364C10.965968 12.211047 13.886108 13.578203 13.245228 15.875303C12.28563 19.539558 1.888551 16.600519 0.089951128 25.218115C0.089951128 24.935314 0.050326798 24.692419 0.050326798 24.411354L0.050326798 24.411354L0.046881206 24.411354Z" fill-rule="evenodd"/>
	<defs>
		<linearGradient id="gradient_4" gradientUnits="userSpaceOnUse" x1="0" y1="6.0531387" x2="13.248308" y2="6.0531387">
			<stop offset="0" stop-color="#47CEFD"/>
			<stop offset="0.34" stop-color="#3797D4"/>
			<stop offset="1" stop-color="#17247D"/>
		</linearGradient>
	</defs>
	<path fill="url(#gradient_4)" transform="translate(50.3057 13.6683)" d="M9.7165747 0.062288668C11.95621 -0.298585 13.675562 0.94885814 13.155277 2.7619014C12.195679 6.426157 1.7986 3.4871187 0 12.104712C0.19984443 9.8076134 1.1577195 8.3190088 2.3981333 7.1496396C3.6385469 5.9820051 8.5192308 4.6131139 10.796768 3.6849053C13.155277 2.6786227 12.676339 -0.019254904 9.7165747 0.0605537L9.7165747 0.0605537L9.7165747 0.062288668Z" fill-rule="evenodd"/>
	<defs>
		<linearGradient id="gradient_5" gradientUnits="userSpaceOnUse" x1="0" y1="3.5865462" x2="28.431316" y2="3.5865462">
			<stop offset="0" stop-color="#47CEFD"/>
			<stop offset="0.34" stop-color="#3797D4"/>
			<stop offset="1" stop-color="#17247D"/>
		</linearGradient>
	</defs>
	<path fill="url(#gradient_5)" transform="translate(58.1427 7.19976)" d="M28.431316 6.7736855C23.993391 4.6396728 19.634716 1.780443 14.87635 1.5774515C8.9585438 1.3362907 4.0003343 5.0421858 1.8795713 6.5307899C1.2800381 6.6539726 0.63915765 6.8552289 0 7.1744633C9.8785172 -2.3678694 16.516453 -0.39520895 20.675285 1.8602515C22.673729 2.9463425 25.631771 5.2018032 28.431316 6.7736855L28.431316 6.7736855Z" fill-rule="evenodd"/>
	<path fill="white" transform="translate(0 25.19)" d="M24.81172 0L19.062748 18.270966L16.175339 18.270966L12.469604 4.5282707L12.41792 4.5282707L8.6363802 18.270966L5.7489729 18.270966L0 0L3.2957103 0L7.1806173 13.201384L7.206459 13.201384L10.784708 0L14.056299 0L17.608707 13.227408L17.634548 13.227408L21.543575 0L24.815166 0L24.81172 0Z"/>
	<path fill="white" transform="translate(24.9134 30.7246)" d="M12.777985 0.17870186L12.777985 12.738147L10.043905 12.738147L10.043905 11.065636L9.9922218 11.065636C9.0980902 12.27491 7.7439718 12.944609 6.0315118 12.944609C2.5824726 12.944609 0 10.397673 0 6.5113411C0 2.6250091 2.5807498 0 6.0056701 0C7.5906429 0 8.9447613 0.59162462 9.8647346 1.6985352L9.916419 1.6985352L9.916419 0.18043683L12.777985 0.18043683L12.777985 0.17870186ZM10.042183 6.5356307C10.042183 4.2975197 8.5347357 2.5989845 6.4897757 2.5989845C4.4448161 2.5989845 2.9115267 4.1170831 2.9115267 6.5356307C2.9115267 8.7494516 4.36729 10.317864 6.4897757 10.317864C8.4313679 10.317864 10.042183 8.7997656 10.042183 6.5356307Z"/>
	<path fill="white" transform="translate(40.3221 24.3156)" d="M1.3799603 9.0322514L0 9.0322514L0 6.5876794L1.3799603 6.5876794L1.3799603 4.2975197C1.3799603 1.4920739 2.7082367 0 5.1614995 0C6.5414596 0 7.6147623 0.43721235 8.2797613 0.8744247L7.640604 3.2929723C6.8222756 2.906074 6.1073151 2.6492987 5.5715251 2.6492987C4.7032356 2.6492987 4.2432485 3.2409232 4.2432485 4.6046095L4.2432485 6.5859447L7.3098269 6.5859447L7.3098269 9.0305166L4.2432485 9.0305166L4.2432485 19.143654L1.3816831 19.143654L1.3816831 9.0305166L1.3799603 9.0322514Z"/>
	<path fill="white" transform="translate(48.6018 26.4253)" d="M1.5332892 13.072996L1.5332892 6.9225287L0 6.9225287L0 4.4779568L1.5332892 4.4779568L1.5332892 0.3088246L4.3948545 0L4.3948545 4.4779568L8.0489073 4.4779568L8.0489073 6.9225287L4.3948545 6.9225287L4.3948545 12.790195C4.3948545 14.077543 4.7773156 14.54078 5.595644 14.54078C6.0814729 14.54078 6.7705917 14.360343 7.4355912 14.001204L8.1763935 16.497826C7.4355912 16.909014 6.6431046 17.243862 5.0081706 17.243862C2.8615656 17.243862 1.5332892 15.880177 1.5332892 13.074731L1.5332892 13.072996Z"/>
	<path fill="#68D8FC" transform="translate(61.6175 30.7228)" d="M12.877907 6.5113411C12.877907 10.397673 10.297157 12.944609 6.8222756 12.944609C5.1356573 12.944609 3.8073812 12.326959 2.8874075 11.194024L2.8615656 11.194024L2.8615656 17.833752L0 17.833752L0 0.18043683L2.8615656 0.18043683L2.8615656 1.7245598C3.8073812 0.59162462 5.1873412 0 6.8481174 0C10.297157 0 12.879629 2.7273722 12.879629 6.5113411L12.877907 6.5113411ZM9.9646568 6.5373654C9.9646568 4.1188178 8.3555651 2.6007195 6.362289 2.6007195C4.2156839 2.6007195 2.7340786 4.2992549 2.7340786 6.5373654C2.7340786 8.7754765 4.3431706 10.319599 6.3881307 10.319599C8.4330902 10.319599 9.9663801 8.7494516 9.9663801 6.5373654L9.9646568 6.5373654Z"/>
	<path fill="#68D8FC" transform="translate(76.7179 30.7246)" d="M12.777985 0.17870186L12.777985 12.738147L10.043905 12.738147L10.043905 11.065636L9.9922218 11.065636C9.0980902 12.27491 7.7439718 12.944609 6.0315118 12.944609C2.5824726 12.944609 0 10.397673 0 6.5113411C0 2.6250091 2.5807498 0 6.0056701 0C7.5906429 0 8.9447613 0.59162462 9.8647346 1.6985352L9.916419 1.6985352L9.916419 0.18043683L12.777985 0.18043683L12.777985 0.17870186ZM10.043905 6.5356307C10.043905 4.2975197 8.536458 2.5989845 6.4914985 2.5989845C4.4465384 2.5989845 2.9132495 4.1170831 2.9132495 6.5356307C2.9132495 8.7494516 4.3707356 10.317864 6.4914985 10.317864C8.4330902 10.317864 10.043905 8.7997656 10.043905 6.5356307Z"/>
	<path fill="#68D8FC" transform="translate(91.72 30.9033)" d="M12.674617 0L5.826499 17.653316L2.8116045 17.653316L5.0598545 11.837698L0 0L3.0148945 0L6.4639339 8.4926758L9.6838408 0L12.674617 0Z"/>
</svg>
